<svg xmlns="http://www.w3.org/2000/svg" width="1683" height="721" viewBox="0 0 1683 721">
  <g fill="none" fill-rule="evenodd">
    <rect width="1680" height="596.06" y="124" fill="#FFF"/>
    <path fill="#371A27" d="M0 719.98L0 201C0 201 986.48 144.79 1088.04 122.63 1189.6 100.48 1381.81 83.17 1465.82 81.1 1549.83 79.03 1624.17 122.05 1680.46 167.34 1680.46 167.34 1680.46 719.98 1680.46 719.98L0 719.98Z"/>
    <path fill="#5673B7" d="M3.83 116.51L0 719.68 1680.78 719.68C1680.78 719.68 1680.78 229.73 1680.78 229.73 1523.81 148.65 1398.37 256.45 1257.12 206.18 1052.82 133.47 801.3 7.5 551.16 26.8 301.01 46.1 3.83 116.51 3.83 116.51Z"/>
    <path fill="#B5A2C1" d="M0 719.21L1680.6 719.21 1680.6 418.75C1550.37 318.65 1473.99 234.91 1135.69 204.7 797.38 174.5 655.74 18.47 448.13 1.15 312.55-10.16 0 92.4 0 92.4L0 719.21Z"/>
    <path fill="#371A27" d="M0 719.8L1681.04 719.8C1681.04 719.8 1682.59 561.75 1682.59 561.75 1613.57 528.13 1214.1 445.27 991.46 471.71 768.82 498.16 392.97 307.17 284.8 250.84 143.79 177.4 106.2 198.44 0 198.44L0 719.8Z"/>
    <path fill="#5673B7" d="M1681.19 612.01C1681.19 612.01 1414.33 532.29 1228.86 518.15 1043.39 504.01 630.72 585.65 494.15 537.46 322.86 477.02 170.48 522.53 0 467.88 0 467.88 0 612.01 0 612.01 0 612.01 0 719.95 0 719.95 0 719.95 1681.19 719.95 1681.19 719.95L1681.19 612.01Z"/>
  </g>
</svg>
