<svg xmlns="http://www.w3.org/2000/svg" width="1683" height="702" viewBox="0 0 1683 702">
  <g fill="none" fill-rule="evenodd">
    <rect width="1680" height="596.06" y="105" fill="#FFF"/>
    <path fill="#371A27" d="M0 700.98L0 182C0 182 1040.95 145.11 1142.52 122.95 1244.08 100.79 1401.04 84.2 1485.05 82.13 1569.06 80.06 1624.17 103.05 1680.46 148.34 1680.46 148.34 1680.46 700.98 1680.46 700.98L0 700.98Z"/>
    <path fill="#5673B7" d="M3.83 97.51L0 700.68 1680.78 700.68C1680.78 700.68 1680.78 210.73 1680.78 210.73 1557.63 159.43 1397.39 209.7 1256.13 159.43 1051.83 86.72 797.11 10.72 546.97 30.02 296.82 49.32 3.83 97.51 3.83 97.51Z"/>
    <path fill="#B5A2C1" d="M0 700.21L1680.6 700.21 1680.6 399.75C1550.37 299.65 1284.41 257.26 1101.8 209.48 919.18 161.7 603.46-4.26 399.98 1.1 262.1 4.73 0 73.4 0 73.4L0 700.21Z"/>
    <path fill="#371A27" d="M0 700.8L1681.04 700.8C1681.04 700.8 1682.59 542.75 1682.59 542.75 1613.57 509.13 1336.17 413.67 1113.53 440.12 890.89 466.56 454.08 346.34 303.77 253.97 179.5 177.6 159.24 206.02 0 179.44L0 700.8Z"/>
    <path fill="#5673B7" d="M1681.19 593.01C1681.19 593.01 1410.28 525.58 1224.81 511.44 1039.34 497.3 645.26 559.62 508.69 511.44 337.4 451 170.48 503.53 0 448.88 0 448.88 0 593.01 0 593.01 0 593.01 0 700.95 0 700.95 0 700.95 1681.19 700.95 1681.19 700.95L1681.19 593.01Z"/>
  </g>
</svg>
