<svg xmlns="http://www.w3.org/2000/svg" width="1685" height="2201" viewBox="0 0 1685 2201">
  <g fill="none" fill-rule="evenodd">
    <rect width="1680" height="2195" y="5" fill="#371A27"/>
    <path fill="#FD6C54" d="M4.37930942e-15,5 L0,2200.25781 L1680.39029,2200.25781 C1680.39029,2200.25781 1680.39029,463.661127 1680.39029,463.661127 C1644.92578,298.572988 1442.96094,273.274518 1403.96484,210.315684 C1364.96875,147.35685 1488.52344,74.339032 1392.07232,5 C1392.07232,5 4.37930942e-15,5 4.37930942e-15,5 Z"/>
    <path fill="#5673B7" d="M5,5 L0,2200.25781 C0,2200.25781 1681.77734,2200.75 1681.77734,2200.25781 C1681.77734,2200.25781 1681.77734,1050.39062 1681.77734,1050.39062 C1681.77734,1050.39062 1620.03675,938.871078 1598.78125,814.769417 C1553.26563,574.324158 1470.31383,455.124527 1276.00781,301.130685 C1083.10937,148.252398 1167.76562,5 1167.76562,5 L5,5 Z"/>
    <path fill="#B5A2C1" d="M0,2200.25781 C0,2200.25781 1681.3125,2200.25781 1680.17188,2200.25781 L1680.17188,1182.86328 C1680.17188,1182.86328 1347.53125,956.155772 1320.17188,777.593087 C1292.8125,599.030402 1347.42188,480.88442 1164.80469,380.030348 C982.1875,279.176276 922.40625,263.253275 877.601563,5 C877.601563,5 0,5 0,5 L0,2200.25781 Z"/>
    <path fill="#F9B0B3" d="M2.359375,0.765625 L2.359375,2191.48453 L1684.95312,2199 L1684.95312,1250.04532 C1684.95312,1250.04532 1452.9375,1215.20312 1290.76562,1043.82812 C1128.59375,872.453125 1261.3125,654.78125 1143.03125,520.828125 C1024.75,386.875 801.296875,453.75 753.703125,277.21875 C706.109375,100.6875 511.234375,4.734375 481.1875,2.75 C451.140625,0.765625 2.359375,0.765625 2.359375,0.765625 Z"/>
    <path fill="#371A27" d="M-2.5243549e-29,2200.25781 C-2.5243549e-29,2200.25781 1680.90625,2200.25781 1680.90625,2200.25781 C1680.90625,2200.25781 1681.66016,1492.11945 1680.90625,1490.89346 C1597.34375,1490.89346 1206.97482,1410.14703 948.5,1120.12837 C767.625,917.179688 863.03125,891.232785 734.171875,736.468346 C642.21926,626.030166 527.975201,547.88293 464.140625,420.327976 C390.542969,273.264328 107.542969,219.514409 -3.79480969e-14,110 C-2.28226431e-13,110 -2.5243549e-29,2200.25781 -2.5243549e-29,2200.25781 Z"/>
    <path fill="#5673B7" d="M416.273438,606.325765 C353.474785,406.462386 229.457031,462.794613 0,289 C7.98413256e-15,289 0,2200.25781 0,2200.25781 C0,2200.25781 1681.45313,2200.25781 1681.45313,2200.25781 C1681.45313,2200.25781 1681.45313,1839.79052 1681.45313,1839.79052 C1645.42586,1670.80253 1484.96875,1500.91093 1089.9375,1385.83862 C694.90625,1270.7663 537.734375,992.888092 416.273438,606.325765 Z"/>
    <path fill="#F9B0B3" d="M0,2200.25781 C0,2200.25781 1682.83008,2200.25781 1682.83008,2200.25781 C1682.83008,2200.25781 1682.83008,2052.74414 1682.83008,2052.74414 C1647.17383,1904.61133 1281.20313,1598.14062 917,1482.76562 C637.125578,1394.1049 515.777545,1141.58206 457.132144,1033.75823 C336.78125,812.484375 258.608776,656.331566 194.789063,573.397476 C150.523438,515.874039 34.40625,515.108414 0,547.607833 C7.57796325e-14,547.607833 0,2200.25781 0,2200.25781 Z"/>
  </g>
</svg>
