<svg xmlns="http://www.w3.org/2000/svg" width="1685" height="2201" viewBox="0 0 1685 2201">
  <g fill="none" fill-rule="evenodd">
    <rect width="1680" height="2195" y="5" fill="#371A27"/>
    <path fill="#FD6C54" d="M4.37930942e-15,5 L0,2200.25781 L1680.39029,2200.25781 C1680.39029,2200.25781 1680.39029,463.661127 1680.39029,463.661127 C1646.54464,220.779762 1510.3244,359.35119 1441.4256,238.934524 C1372.52679,118.517857 1522.91369,78.1011905 1392.07232,5 C1392.07232,5 4.37930942e-15,5 4.37930942e-15,5 Z"/>
    <path fill="#5673B7" d="M5,5 L0,2200.25781 C0,2200.25781 1681.77734,2200.75 1681.77734,2200.25781 C1681.77734,2200.25781 1681.77734,999.202381 1681.77734,999.202381 C1681.77734,999.202381 1595.90476,954.02381 1595.90476,744.529762 C1595.90476,487.089286 1489.61012,404.202381 1223.04762,269.321429 C1012.63716,162.853479 1119.77381,5 1119.77381,5 L5,5 Z"/>
    <path fill="#B5A2C1" d="M0,2200.25781 C0,2200.25781 1681.3125,2200.25781 1680.17188,2200.25781 L1680.17188,1102.62891 C1680.17188,1102.62891 1354.65476,1001.6131 1354.65476,795.988095 C1354.65476,590.363095 1373.09226,473.889881 1127.95833,393.979167 C882.824405,314.068452 922.40625,263.253275 877.601563,5 C877.601563,5 0,5 0,5 L0,2200.25781 Z"/>
    <path fill="#F9B0B3" d="M2.359375,0.765625 L2.359375,2191.48453 L1684.95312,2199 L1684.95312,1250.04532 C1684.95312,1250.04532 1464.02976,1234.36607 1337.3631,1024.55952 C1210.69643,814.752976 1337.3631,679.485119 1143.03125,520.828125 C948.699405,362.171131 801.261905,520.828125 753.703125,277.21875 C706.144345,33.609375 511.234375,4.734375 481.1875,2.75 C451.140625,0.765625 2.359375,0.765625 2.359375,0.765625 Z"/>
    <path fill="#371A27" d="M-2.5243549e-29,2200.25781 C-2.5243549e-29,2200.25781 1680.90625,2200.25781 1680.90625,2200.25781 C1680.90625,2200.25781 1681.66016,1492.11945 1680.90625,1490.89346 C1519.40179,1352.47619 1279.3125,1490.89346 1007.52679,1155.12891 C834.698431,941.616447 942.814732,835.499558 813.955357,680.735119 C722.002742,570.296939 543.732143,614.1875 476.083333,369.455357 C430.804913,205.652254 107.542969,219.514409 -3.79480969e-14,110 C-2.28226431e-13,110 -2.5243549e-29,2200.25781 -2.5243549e-29,2200.25781 Z"/>
    <path fill="#5673B7" d="M419.892857,546.375 C297.75,311.508929 229.029762,522.282738 0,289 C7.98413256e-15,289 0,2200.25781 0,2200.25781 C0,2200.25781 1681.45313,2200.25781 1681.45313,2200.25781 C1681.45313,2200.25781 1681.45313,1839.79052 1681.45313,1839.79052 C1658.07738,1605.79464 1412.18452,1433.84524 1022.16964,1338.59226 C632.154762,1243.33929 603.656993,899.731404 419.892857,546.375 Z"/>
    <path fill="#F9B0B3" d="M0,2200.25781 L1682.83008,2200.25781 C1682.83008,2200.25781 1682.83008,2000.92857 1682.83008,2000.92857 C1571.85714,1718.38393 1413.97904,1526.94731 1004.50595,1483.57738 C680.800595,1449.29167 491.217262,1168.4881 457.132144,1033.75823 C395.14384,788.734131 317.652893,638.778625 209.758929,547.607833 C122.184524,473.607143 57.5863095,493.815476 0,547.607833 C7.57796325e-14,547.607833 0,2200.25781 0,2200.25781 Z"/>
  </g>
</svg>
